<?xml version="1.0" encoding="utf-8"?>
<!-- Generator: Adobe Illustrator 19.2.1, SVG Export Plug-In . SVG Version: 6.00 Build 0)  -->
<svg version="1.1" id="Calque_1" xmlns="http://www.w3.org/2000/svg" xmlns:xlink="http://www.w3.org/1999/xlink" x="0px" y="0px"
	 viewBox="0 0 173.2 158.7" style="enable-background:new 0 0 173.2 158.7;" xml:space="preserve">
<style type="text/css">
	.st0{fill:#FCFDDA;}
</style>
<g>
	<path class="st0" d="M144.7,51.8c-12.8,0-23.1-10.4-23.1-23.1c0-5,1.6-9.7,4.4-13.5C112.9,5.6,96.7,0,79.2,0
		C35.1,0,0.1,35.5,0.1,79.6s35,79.1,79.1,79.1s79.4-35.1,79.4-79.1c0-10.4-1.9-20.3-5.5-29.3C150.5,51.2,147.7,51.8,144.7,51.8z
		 M79.2,123.4c-24,0-43.9-19.8-43.9-43.9c0-24.2,19.8-44.3,43.9-44.3c24.2,0,44.1,20.1,44.1,44.3
		C123.3,103.6,103.4,123.4,79.2,123.4L79.2,123.4L79.2,123.4z"/>
	<path class="st0" d="M144.7,0.2c-15.8,0-28.4,12.7-28.4,28.6s12.6,28.4,28.4,28.4s28.5-12.6,28.5-28.4S160.5,0.2,144.7,0.2z
		 M144.7,49.7c-11.5,0-21-9.5-21-21c0-11.6,9.5-21.2,21-21.2c11.6,0,21.1,9.6,21.1,21.2S156.3,49.7,144.7,49.7L144.7,49.7z"/>
</g>
</svg>
